<mxfile host="app.diagrams.net" modified="2021-03-26T08:02:28.578Z" agent="5.0 (Macintosh; Intel Mac OS X 10_15_6) AppleWebKit/605.1.15 (KHTML, like Gecko) Version/14.0.3 Safari/605.1.15" etag="35fhY7ArLVIFZC6hjgAc" version="14.5.1" type="github">
  <diagram id="Xs0s2cJdBJTA1fYSCisF" name="Page-1">
    <mxGraphModel dx="1048" dy="675" grid="1" gridSize="10" guides="1" tooltips="1" connect="1" arrows="1" fold="1" page="1" pageScale="1" pageWidth="827" pageHeight="1169" background="#283618" math="0" shadow="0">
      <root>
        <mxCell id="0" />
        <mxCell id="1" parent="0" />
        <mxCell id="jp0BgPLnQmQ9xIHrgFeW-1" value="" style="rounded=0;whiteSpace=wrap;html=1;fillColor=#BC6C25;strokeColor=#DDA15E;fontColor=#FEFAE0;" vertex="1" parent="1">
          <mxGeometry x="40" y="40" width="720" height="50" as="geometry" />
        </mxCell>
        <mxCell id="jp0BgPLnQmQ9xIHrgFeW-2" value="Header &amp;nbsp;row 1 - column 12" style="text;html=1;strokeColor=none;fillColor=none;align=center;verticalAlign=middle;whiteSpace=wrap;rounded=0;fontColor=#FEFAE0;" vertex="1" parent="1">
          <mxGeometry x="160" y="55" width="530" height="25" as="geometry" />
        </mxCell>
        <mxCell id="jp0BgPLnQmQ9xIHrgFeW-3" value="Graph 1" style="rounded=0;whiteSpace=wrap;html=1;fillColor=#BC6C25;strokeColor=#DDA15E;fontColor=#FEFAE0;" vertex="1" parent="1">
          <mxGeometry x="40" y="160" width="560" height="230" as="geometry" />
        </mxCell>
        <mxCell id="jp0BgPLnQmQ9xIHrgFeW-4" value="" style="rounded=0;whiteSpace=wrap;html=1;fillColor=#BC6C25;strokeColor=#DDA15E;fontColor=#FEFAE0;" vertex="1" parent="1">
          <mxGeometry x="40" y="100" width="720" height="20" as="geometry" />
        </mxCell>
        <mxCell id="jp0BgPLnQmQ9xIHrgFeW-6" value="" style="rounded=0;whiteSpace=wrap;html=1;fillColor=#BC6C25;strokeColor=#DDA15E;fontColor=#FEFAE0;" vertex="1" parent="1">
          <mxGeometry x="600" y="160" width="160" height="120" as="geometry" />
        </mxCell>
        <mxCell id="jp0BgPLnQmQ9xIHrgFeW-9" value="" style="rounded=0;whiteSpace=wrap;html=1;fillColor=#BC6C25;strokeColor=#DDA15E;fontColor=#FEFAE0;" vertex="1" parent="1">
          <mxGeometry x="600" y="280" width="160" height="110" as="geometry" />
        </mxCell>
        <mxCell id="jp0BgPLnQmQ9xIHrgFeW-10" value="" style="rounded=0;whiteSpace=wrap;html=1;fillColor=#BC6C25;strokeColor=#DDA15E;fontColor=#FEFAE0;" vertex="1" parent="1">
          <mxGeometry x="40" y="130" width="720" height="20" as="geometry" />
        </mxCell>
        <mxCell id="jp0BgPLnQmQ9xIHrgFeW-11" value="Graph 1" style="rounded=0;whiteSpace=wrap;html=1;fillColor=#BC6C25;strokeColor=#DDA15E;fontColor=#FEFAE0;" vertex="1" parent="1">
          <mxGeometry x="40" y="410" width="720" height="230" as="geometry" />
        </mxCell>
      </root>
    </mxGraphModel>
  </diagram>
</mxfile>
